<?xml version="1.0" encoding="utf-8"?>
<!-- Generator: Adobe Illustrator 16.0.0, SVG Export Plug-In . SVG Version: 6.00 Build 0)  -->
<!DOCTYPE svg PUBLIC "-//W3C//DTD SVG 1.1//EN" "http://www.w3.org/Graphics/SVG/1.1/DTD/svg11.dtd">
<svg version="1.1" id="Capa_1" xmlns="http://www.w3.org/2000/svg" xmlns:xlink="http://www.w3.org/1999/xlink" x="0px" y="0px"
	 width="512px" height="512px" viewBox="0 0 512 512" enable-background="new 0 0 512 512" xml:space="preserve">
<path display="none" fill="#FFB505" d="M149,320.353c0,38.022,6.348,74.305,27.053,107c15.216,24.026,34.857,43.583,58.947,58.681
	c19.383,12.147,41.465,20.318,64,24.072c22.455,3.741,46.673,3.764,69-0.964c104.243-22.072,165.912-129.458,136.859-230.789
	c-6.073-21.182-16.79-41.616-30.284-59c-15.828-20.391-35.724-37.161-58.575-49.219c-30.35-16.014-62.139-20.781-96-20.781
	c-0.27-32.464-15.275-66.283-35.615-91C266.542,36.67,242.654,18.951,216,9.697c-24.747-8.593-50.938-11.62-77-8.5
	c-19.637,2.352-38.543,8.719-56,17.936c-16.278,8.594-31.031,20.441-43.155,34.219C-29.328,131.961-4.742,257.844,89,304.6
	C107.086,313.62,128.655,320.185,149,320.353z"/>
<circle fill="#FFA000" cx="160.583" cy="160.348" r="160.348"/>
<circle fill="#FFB505" cx="330.804" cy="330.5" r="180.5"/>
<path fill="#455B65" d="M442,117c-5.814-2.421-11.296-5.554-17-8.218c-9.848-4.6-25.824,0.747-18.543,14.125
	c2.336,4.291,7.396,6.261,11.543,8.34c10.252,5.139,32.377,21.78,43.985,17.895c9.674-3.238,14.571-20.75,18.768-29.142
	c3.779-7.557,13.569-20.258,9.068-28.984C480.407,72.764,465.705,96.61,463,106c-5.548-10.529-8.947-21.81-15.436-32
	C434.762,53.896,415.011,38.343,393,29.453c-12.241-4.944-26.713-8.833-40-8.438c-7.48,0.223-13.703,6.057-11.566,13.983
	c1.102,4.083,4.504,6.946,8.566,7.787c12.861,2.663,24.743,3.642,37,9.076C413.25,63.5,435.481,88.82,442,117z"/>
<path fill="#818181" d="M377,24l1,1L377,24 M384,26l1,1L384,26 M399,32l1,1L399,32 M403,34l1,1L403,34z"/>
<path fill="#F5F5F4" d="M85,128c-5.042,0-11.494-1.007-15.945,1.858c-6.695,4.309-6.045,14.318,0.964,17.963
	C74.251,150.022,80.371,149,85,149v22c-4.64,0-10.737-1.013-14.984,1.179c-7.097,3.663-7.75,13.594-0.961,17.963
	C73.506,193.007,79.958,192,85,192c0,30.139,15.139,49.83,44,59.329c9.648,3.176,38.821,11.478,41.373-4.33
	c2.446-15.145-22.212-12.708-31.373-15.154c-21.412-5.716-32-18.16-32-39.845h65c7.679,0,19.173,0.623,19.717-10
	c0.565-11.041-10.957-11-18.717-11h-66v-22h66c7.76,0,19.282,0.041,18.717-11c-0.544-10.623-12.038-10-19.717-10h-65
	c0-6.269-0.892-13.216,2-19c14.898-29.797,66.003-28.874,90-12.895c5.338,3.555,10.594,8.783,12.867,14.895
	c1.783,4.794,1.073,10.77,5.361,14.347c6.747,5.63,16.183,0.866,17.214-7.347c3.364-26.795-26.571-45.083-48.442-50.844
	C155.637,59.157,110.486,64.971,92.468,94C85.924,104.542,85,115.917,85,128z"/>
<path fill="#818181" d="M449,77l1,1L449,77 M453,84l1,1L453,84 M454,86l1,1L454,86 M455,88l1,1L455,88 M488,88l1,1L488,88 M438,105
	l1,1L438,105 M405,113l1,1L405,113 M461,149l1,1L461,149z"/>
<path fill="#F5F5F4" d="M320,404c-13.409-0.585-29.146-7.211-37.468-18.004c-6.065-7.867-3.708-24.486-17.531-22.859
	c-16.187,1.906-6.911,26.046-1.642,33.863c12.593,18.681,35.311,26.302,56.641,29c0,5.216-1.268,12.392,1.742,16.956
	c4.307,6.533,15.113,6.651,18.4-0.999C342.105,437.384,341,430.887,341,426c33.436-2.642,78.997-30.596,60.676-70
	c-2.374-5.106-5.85-9.927-9.766-13.961c-8.081-8.324-19.814-14.431-30.91-17.612c-4.666-1.337-16.175-1.524-18.973-5.744
	C339.316,314.593,341,305.733,341,301v-44c13.4,1.094,29.034,7.167,37.471,18.004c5.604,7.199,4.328,24.173,16.529,23.702
	c8.596-0.332,10.416-8.763,9.91-15.706c-0.955-13.08-9.805-24.448-19.91-32.1c-7.313-5.538-16.145-9.649-25-12.015
	c-4.747-1.268-12.663-1.163-16.682-3.909c-7.323-5.003,2.502-19.841-11.318-21.538c-16.354-2.009-7.039,16.566-14.318,21.538
	c-5.188,3.544-15.543,3.531-21.682,5.716c-19.596,6.974-39.432,22.74-39.985,45.308c-0.589,24.032,17.711,41.147,38.985,48.947
	c5.773,2.117,19.271,2.499,23.396,6.655C321.659,344.89,320,353.744,320,358V404z"/>
<path fill="#FFB505" d="M320,319v-62c-16.593,0.723-42.421,11.355-42.421,31S303.407,318.277,320,319 M341,342v62
	c18.855-0.156,52.366-16.423,40.573-40C374.386,349.632,355.789,343.91,341,342z"/>
<path fill="#455B65" d="M49,406h1c8.069,34.878,37.828,65.211,71,77.305c11.62,4.236,24.541,7.805,37,7.69
	c7.125-0.065,13.516-4.035,12.876-11.995c-0.333-4.138-2.996-7.735-6.88-9.258c-11.957-4.692-25.671-3.895-37.996-9.169
	C100.168,449.517,74.246,422.749,70,394c6.538,4.618,18.658,12.654,27,11.746c11.52-1.253,12.569-15.603,3.957-21.278
	c-10.408-6.859-22.809-11.65-33.957-17.221c-4.747-2.372-10.454-5.867-15.996-4.65c-5.783,1.271-8.329,6.586-10.756,11.403
	c-5.197,10.317-10.342,20.661-15.495,31c-2.602,5.222-5.464,11.191-2.296,16.895C32.007,439.091,46.482,414.74,49,406z"/>
<path fill="#818181" d="M102,385l1,1L102,385 M70,394l1,1L70,394 M78,398l1,1L78,398 M73,406l1,1L73,406 M57,425l1,1L57,425 M66,440
	l1,1L66,440 M101,445l1,1L101,445 M139,465l1,1L139,465 M143,466l1,1L143,466 M110,478l1,1L110,478z"/>
</svg>
